<svg width="7" height="16" viewBox="0 0 7 16" fill="none" xmlns="http://www.w3.org/2000/svg">
<path id="Vector" d="M6.68912 0.420946C6.78767 0.553514 6.86585 0.710979 6.9192 0.884327C6.97254 1.05768 7 1.2435 7 1.43118C7 1.61885 6.97254 1.80468 6.9192 1.97802C6.86585 2.15137 6.78767 2.30884 6.68912 2.4414L2.56453 8.00125L6.68912 13.5611C6.88788 13.829 6.99955 14.1924 6.99955 14.5713C6.99955 14.9502 6.88788 15.3136 6.68912 15.5816C6.49036 15.8495 6.22077 16 5.93968 16C5.65858 16 5.389 15.8495 5.19023 15.5816L0.310879 9.00431C0.212332 8.87175 0.134148 8.71428 0.0808029 8.54093C0.0274577 8.36758 4.76837e-07 8.18175 4.76837e-07 7.99408C4.76837e-07 7.80641 0.0274577 7.62058 0.0808029 7.44724C0.134148 7.27389 0.212332 7.11642 0.310879 6.98385L5.19023 0.406617C5.59419 -0.137904 6.27453 -0.137904 6.68912 0.420946Z" fill="#A9A9A9" fill-opacity="0.73"/>
</svg>
