<svg width="129" height="100" viewBox="0 0 129 100" fill="none" xmlns="http://www.w3.org/2000/svg">
<g id="batik kita 1" clip-path="url(#clip0_150_10)">
<g id="Group">
<g id="Layer_1">
<path id="Vector" d="M95.3 70.1C94.5 68.8 93.4 67.9 92 67.2C90.6 66.5 89.2 66.1 87.5 65.9C85.9 65.7 84.3 65.8 82.8 66C81.3 66.2 79.8 66.7 78.5 67.5C77.2 68.2 76.3 69.1 75.7 70.2C75.4 70.8 75.2 71.4 75.2 72.1C75.2 72.8 75.5 73.4 75.9 73.9C76.4 74.4 77 74.6 77.7 74.6C78.4 74.6 79 74.4 79.5 73.9C80 73.4 80.2 72.8 80.2 72.1C80.2 71.4 80 70.9 79.5 70.4C79.4 70.2 79.2 70.1 79 70C80 69.3 81.1 69 82.2 69C83.3 69 84.2 69.3 85.1 69.9C86 70.5 86.7 71.4 87.3 72.6C87.9 73.8 88.1 75.1 88.1 76.7V93.7C88.1 94.2 88.1 94.7 87.9 95.3C87.7 95.9 87.4 96.1 86.7 96.1C86 96.1 85.7 95.8 85.5 95.3C85.3 94.8 85.3 94.2 85.3 93.7V84C85.3 82.4 84.9 81.1 84 80.1C83.2 79.1 82.1 78.3 80.8 77.8C79.6 77.3 78.3 77 76.8 77.1C75.3 77.1 74 77.4 72.7 77.9C71.5 78.4 70.5 79.2 69.6 80.3C68.8 81.3 68.3 82.6 68.3 84.1V93.8C68.3 94.6 68.5 95.3 68.8 96C69.1 96.7 69.6 97.3 70.1 98C70.7 98.6 71.3 99 72 99.4C72.7 99.7 73.4 99.9 74.2 99.9C75 99.9 76 99.9 76.7 99.6C77.4 99.4 77.9 99.2 78.2 98.9C78.6 98.6 78.9 98.2 79 97.9C79.2 97.5 79.4 97.1 79.5 96.6C78 96.6 76.7 96.1 75.5 95C74.4 93.8 73.9 92.5 73.9 91V84.1C73.9 82.9 74.3 82 75.2 81.4C76.1 80.8 77 80.5 78.1 80.5C79.2 80.5 80.1 80.8 81 81.4C81.9 82 82.3 82.9 82.3 84.1V93.8C82.3 95.3 82.8 96.6 83.9 97.8C85.1 98.9 86.4 99.4 87.9 99.4H96.3V74.6C96.3 72.8 95.9 71.3 95 70.1H95.3ZM60.4 69.1C60.5 68.5 60.9 68.3 61.6 68.3H65.8V65.9H60.3V62C60.3 60.4 59.8 59.1 58.7 58C57.6 56.9 56.3 56.4 54.7 56.4H51.9V99.5H60.3C61.9 99.5 63.2 99 64.3 97.9C65.4 96.7 65.9 95.4 65.9 93.9V71.2H63.2V93.9C63.2 94.4 63.2 94.9 63 95.5C62.8 96.1 62.5 96.3 61.8 96.3C61.1 96.3 60.8 96 60.6 95.5C60.4 95 60.4 94.4 60.4 93.9V70.7C60.4 70.2 60.4 69.7 60.6 69.2L60.4 69.1ZM46.6 67.5C45.5 66.4 44.2 65.8 42.6 65.8H39.8C38.3 65.8 36.9 66.4 35.8 67.5C34.7 68.6 34.2 69.9 34.2 71.5V99.5H36.9V71.5C36.9 71 36.9 70.5 37.1 69.9C37.3 69.3 37.6 69.1 38.3 69.1C39 69.1 39.3 69.4 39.5 69.9C39.7 70.4 39.7 71 39.7 71.5V99.5H48V71.5C48 69.9 47.5 68.5 46.4 67.5H46.6ZM29.2 81.5C28.1 80.4 26.8 79.9 25.2 79.9H21C23.3 79.1 25.1 77.9 26.5 76.3C28 74.7 28.9 73.1 29.2 71.5C29.5 69.9 29.1 68.5 28 67.4C26.9 66.3 25 65.6 22.3 65.6C19.6 65.6 19.7 65.9 18.4 66.4C17.1 66.9 15.9 67.7 14.8 68.9C13.8 70 12.9 71.5 12.2 73.3C11.6 75.1 11.2 77.3 11.2 80V94C11.2 94.5 11.2 95 11 95.6C10.8 96.2 10.5 96.4 9.8 96.4C9.1 96.4 8.8 96.1 8.6 95.6C8.4 95.1 8.4 94.5 8.4 94V62C8.4 60.4 7.9 59.1 6.8 58C5.7 56.9 4.4 56.4 2.8 56.4H0V99.5H8.4C10 99.5 11.3 99 12.4 97.9C13.3 96.9 13.9 95.7 14 94.5V82.8H19.6C21.2 82.8 22.5 83.3 23.6 84.4C24.7 85.6 25.2 86.9 25.2 88.4V99.6H30.7V85.6C30.7 84.1 30.2 82.8 29.1 81.6L29.2 81.5ZM18.2 78.9C17 79.5 15.6 79.8 14 79.8C14 77.8 14.2 76 14.6 74.6C15 73.1 15.5 72 16.1 71C16.7 70.1 17.4 69.4 18.1 68.9C18.9 68.4 19.6 68.1 20.3 68C21.6 67.8 22.6 68 23.2 68.5C23.9 69 24.2 69.7 24.3 70.6C24.3 71.4 24.1 72.4 23.7 73.5C23.2 74.6 22.6 75.6 21.7 76.5C20.8 77.4 19.7 78.2 18.4 78.9H18.2ZM126.6 32.5C125.5 31.4 124.2 30.9 122.6 30.9H118.4C120.7 30.1 122.5 28.9 123.9 27.3C125.4 25.7 126.3 24.1 126.6 22.5C126.9 20.9 126.5 19.5 125.4 18.4C124.3 17.2 122.4 16.6 119.7 16.6C117 16.6 117.1 16.9 115.8 17.4C114.5 17.9 113.3 18.7 112.2 19.9C111.2 21 110.3 22.5 109.6 24.3C108.9 26.1 108.6 28.3 108.6 31V45C108.6 45.5 108.6 46 108.4 46.6C108.3 47.2 107.9 47.4 107.2 47.4C106.5 47.4 106.1 47.1 106 46.6C105.9 46 105.8 45.5 105.8 45V12.8C105.8 11.2 105.3 9.89999 104.2 8.79999C103.1 7.69999 101.8 7.19999 100.2 7.19999H97.4V50.3H105.8C107.4 50.3 108.7 49.8 109.8 48.7C110.7 47.7 111.3 46.5 111.4 45.3V33.6H117C118.6 33.6 119.9 34.1 121 35.2C122.1 36.4 122.6 37.7 122.6 39.2V50.4H128.1V36.4C128.1 34.9 127.6 33.6 126.5 32.4L126.6 32.5ZM115.6 29.9C114.4 30.5 113 30.8 111.5 30.8C111.5 28.8 111.7 27 112.1 25.6C112.5 24.1 113 23 113.6 22C114.2 21 114.9 20.4 115.6 19.9C116.4 19.4 117.1 19.1 117.8 19C119.1 18.8 120.1 19 120.7 19.5C121.4 20 121.7 20.7 121.7 21.6C121.7 22.4 121.5 23.4 121.1 24.5C120.6 25.6 120 26.6 119.1 27.5C118.2 28.4 117.1 29.2 115.8 29.9H115.6ZM93.8 6.79999C93.8 5.49999 93.4 4.39999 92.9 3.49999C92.4 2.69999 91.7 2.09999 90.9 1.59999C90.1 1.09999 89.1 0.799988 88 0.799988C86.9 0.799988 86 1.09999 85.6 1.59999C85.2 2.19999 85 2.79999 85 3.59999C86.8 3.19999 88.2 3.29999 89.3 3.89999C90.2 4.49999 90.8 5.29999 91.1 6.39999C91.4 7.49999 91.2 8.49999 90.7 9.39999C90.4 9.99999 89.9 10.4 89.2 10.9C88.6 11.3 87.7 11.5 86.7 11.5C85.7 11.5 85.7 11.5 85.2 11.3C84.7 11.1 84.4 10.9 84.2 10.5C84.3 10.5 84.4 10.3 84.5 10.3C84.5 10.3 84.7 10.2 84.8 10.1C85.3 9.49999 85.6 8.79999 85.6 8.09999C85.6 7.39999 85.4 6.79999 84.8 6.09999C84.2 5.49999 83.6 5.29999 82.8 5.29999C82 5.29999 81.4 5.59999 80.8 6.09999C80.2 6.59999 80 7.29999 80 8.09999C80 9.69999 80.6 11.1 81.7 12.1C82.2 12.6 82.9 13.1 83.8 13.4C84.7 13.8 85.7 14 86.7 14C88.5 14 89.9 13.7 91 13C92.1 12.3 92.9 11.3 93.4 10.3C93.9 9.19999 94.1 7.99999 94 6.79999H93.8ZM92.2 18.5C91.1 17.4 89.8 16.8 88.2 16.8H85.4C83.9 16.8 82.5 17.4 81.4 18.5C80.3 19.6 79.8 20.9 79.8 22.5V50.5H82.5V22.5C82.5 22 82.5 21.5 82.7 20.9C82.8 20.3 83.2 20.1 83.9 20.1C84.6 20.1 85 20.4 85.1 20.9C85.2 21.5 85.3 22 85.3 22.5V50.5H93.6V22.5C93.6 20.9 93.1 19.5 92 18.5H92.2ZM71 20.1C71.1 19.5 71.5 19.3 72.2 19.3H76.4V16.9H70.9V13C70.9 11.4 70.4 10.1 69.3 8.99999C68.2 7.89999 66.9 7.39999 65.3 7.39999H62.5V50.5H70.9C72.5 50.5 73.8 50 74.9 48.9C76 47.7 76.5 46.4 76.5 44.9V22.2H73.8V44.9C73.8 45.4 73.8 45.9 73.6 46.5C73.5 47.1 73.1 47.3 72.4 47.3C71.7 47.3 71.4 47 71.2 46.5C71 46 71 45.4 71 44.9V21.7C71 21.2 71 20.7 71.2 20.2L71 20.1ZM26.7 20.1C25.9 19 24.8 18.2 23.6 17.7C22.4 17.2 21.1 16.9 19.6 16.9C18.2 16.9 16.8 17.1 15.5 17.6C14.3 18.1 13.3 18.8 12.4 19.9C11.6 20.9 11.1 22.2 11.1 23.8V44.8C11.1 45.3 11.1 45.8 10.9 46.4C10.7 47 10.4 47.2 9.7 47.2C9 47.2 8.7 46.9 8.5 46.4C8.3 45.9 8.3 45.3 8.3 44.8V12.8C8.3 11.2 7.8 9.89999 6.7 8.79999C5.6 7.69999 4.3 7.19999 2.7 7.19999H0V50.3H8.4C10 50.3 11.3 49.8 12.4 48.7C13.5 47.5 14 46.2 14 44.7V23.7C14 22.5 14.4 21.6 15.3 21C16.2 20.4 17.1 20.1 18.2 20.1C19.3 20.1 20.2 20.4 21.1 21C22 21.6 22.4 22.5 22.4 23.7V41.9C22.4 43.5 21.9 44.8 20.8 45.9C19.6 47 18.3 47.5 16.8 47.5C16.8 47.9 17 48.3 17.2 48.8C17.4 49.2 17.7 49.5 18.1 49.8C18.5 50.1 19.1 50.3 19.7 50.5C20.4 50.7 21.2 50.8 22.2 50.8C23.2 50.8 23.7 50.6 24.4 50.3C25.1 49.9 25.7 49.5 26.2 48.9C26.8 48.3 27.2 47.6 27.5 46.9C27.8 46.1 28 45.4 28 44.7V23.7C28 22.2 27.6 20.9 26.7 19.9V20.1Z" fill="#E4676C"/>
<path id="Vector_2" d="M38.0001 46C37.3001 45.3 36.9001 44.7 36.6001 44C36.4001 43.4 36.4001 42.8 36.4001 42V35.1C36.4001 33.9 36.8001 33 37.7001 32.4C38.6001 31.8 39.6001 31.5 40.6001 31.5C41.6001 31.5 42.7001 31.8 43.5001 32.4C44.4001 33 44.8001 33.9 44.8001 35.1V44.8C44.8001 46.3 45.3001 47.6 46.4001 48.8C47.6001 49.9 48.9001 50.4 50.4001 50.4H58.8001V25.6C58.8001 23.8 58.4001 22.3 57.5001 21.1C56.7001 19.8 55.6001 18.9 54.2001 18.2C52.8001 17.5 51.4001 17.1 49.7001 16.9C48.1001 16.7 46.5001 16.8 45.0001 17C43.5001 17.2 42.0001 17.7 40.7001 18.5C39.4001 19.2 38.5001 20.1 37.9001 21.2C37.6001 21.8 37.4001 22.4 37.4001 23.1C37.4001 23.8 37.7001 24.4 38.1001 24.9C38.6001 25.4 39.2001 25.6 39.9001 25.6C40.6001 25.6 41.2001 25.4 41.7001 24.9C42.2001 24.4 42.4001 23.8 42.4001 23.1C42.4001 22.4 42.2001 21.9 41.7001 21.4C41.6001 21.2 41.4001 21.1 41.2001 21C42.2001 20.3 43.3001 20 44.4001 20C45.5001 20 46.5001 20.3 47.3001 20.9C48.2001 21.5 48.9001 22.4 49.5001 23.6C50.1001 24.8 50.3001 26.1 50.3001 27.7V44.7C50.3001 45.2 50.3001 45.7 50.1001 46.3C49.9001 46.9 49.6001 47.1 48.9001 47.1C48.2001 47.1 47.9001 46.8 47.7001 46.3C47.5001 45.8 47.5001 45.2 47.5001 44.7V35C47.5001 33.4 47.1001 32.1 46.2001 31.1C45.4001 30.1 44.3001 29.3 43.1001 28.8C41.9001 28.3 40.6001 28 39.1001 28.1C37.7001 28.1 36.3001 28.4 35.0001 28.9C33.8001 29.4 32.8001 30.2 31.9001 31.3C31.1001 32.3 30.6001 33.6 30.6001 35.1V44.8C30.6001 45.6 30.8001 46.3 31.1001 47C31.3001 47.4 31.6001 48.2 32.4001 49C32.6001 49.2 33.0001 49.5 34.5001 50.2C35.4001 50.6 36.0001 50.9 36.9001 51.2C40.5001 52.5 41.2001 51.8 42.6001 52.8C44.6001 54.1 45.8001 57 45.0001 58.6C44.6001 59.3 43.8001 59.7 43.4001 60C43.1001 60.2 42.2001 60.6 40.9001 60.6C39.6001 60.6 39.9001 60.6 39.4001 60.4C38.9001 60.2 38.6001 60 38.4001 59.6C38.4001 59.6 38.6001 59.4 38.7001 59.4C38.7001 59.4 38.9001 59.3 39.0001 59.2C39.5001 58.6 39.8001 57.9 39.8001 57.2C39.8001 56.5 39.5001 55.9 39.0001 55.2C38.4001 54.6 37.8001 54.4 37.0001 54.4C36.2001 54.4 35.6001 54.7 35.0001 55.2C34.4001 55.7 34.2001 56.4 34.2001 57.2C34.2001 58.8 34.8001 60.2 35.9001 61.2C36.4001 61.7 37.1001 62.2 38.0001 62.5C38.9001 62.9 39.9001 63.1 40.9001 63.1C42.7001 63.1 44.1001 62.8 45.2001 62.1C46.3001 61.4 47.1001 60.4 47.6001 59.4C47.9001 58.8 48.1001 58.1 48.2001 57.5C48.2001 57.5 48.3001 56.7 48.2001 55.9C48.0001 53.6 46.0001 51.5 45.8001 51.4C45.2001 50.8 43.9001 50 41.2001 48.4C40.3001 47.9 39.2001 47.2 38.0001 46.1V46Z" fill="#E4676C"/>
</g>
</g>
</g>
<defs>
<clipPath id="clip0_150_10">
<rect width="129" height="100" fill="white"/>
</clipPath>
</defs>
</svg>
