<svg width="29" height="22" viewBox="0 0 29 22" fill="none" xmlns="http://www.w3.org/2000/svg">
<g id="eye 1" clip-path="url(#clip0_323_298)">
<g id="Group">
<g id="Group_2">
<path id="Vector" d="M28.2449 10.3476C27.9946 10.0867 22.0327 3.95971 14.4183 3.95971C6.80391 3.95971 0.841745 10.0867 0.591798 10.3473C0.354817 10.5948 0.354817 10.9305 0.591798 11.178C0.841745 11.4389 6.80391 17.5659 14.4183 17.5659C22.0327 17.5659 27.9946 11.4389 28.2449 11.1782C28.4822 10.9308 28.4822 10.5948 28.2449 10.3476ZM14.4183 16.1584C8.8095 16.1584 3.95166 12.0917 2.51363 10.7623C3.9498 9.43171 8.79747 5.36724 14.4183 5.36724C20.0269 5.36724 24.8844 9.43313 26.323 10.7633C24.8869 12.0938 20.0392 16.1584 14.4183 16.1584Z" fill="#8E8E8E"/>
</g>
</g>
<g id="Group_3">
<g id="Group_4">
<path id="Vector_2" d="M14.4184 6.54019C11.3636 6.54019 8.87817 8.4345 8.87817 10.7628C8.87817 13.0911 11.3636 14.9854 14.4184 14.9854C17.4732 14.9854 19.9586 13.0911 19.9586 10.7628C19.9586 8.4345 17.4732 6.54019 14.4184 6.54019ZM14.4184 13.5779C12.3817 13.5779 10.725 12.3151 10.725 10.7628C10.725 9.21057 12.3818 7.94776 14.4184 7.94776C16.455 7.94776 18.1119 9.21057 18.1119 10.7628C18.1119 12.3151 16.4551 13.5779 14.4184 13.5779Z" fill="#8E8E8E"/>
</g>
</g>
</g>
<defs>
<clipPath id="clip0_323_298">
<rect width="28.0088" height="21.3476" fill="white" transform="translate(0.414062 0.0889893)"/>
</clipPath>
</defs>
</svg>
