<svg width="140" height="98" viewBox="0 0 140 98" fill="none" xmlns="http://www.w3.org/2000/svg">
<g id="Artboard 35 1">
<g id="Group 3">
<path id="Vector" d="M21.5222 24.6349H25.9228C27.5061 24.6349 28.8333 25.1667 29.9043 26.2303C30.9754 27.3864 31.5109 28.7044 31.5109 30.1842V44.0576H25.9228V32.9589C25.9228 31.4791 25.3873 30.1611 24.3162 29.005C23.2452 27.9414 21.918 27.4096 20.3347 27.4096H14.7466V39.0632C14.6069 40.3118 14.0713 41.4448 13.14 42.4622C12.0689 43.5258 10.7417 44.0576 9.15843 44.0576H0.776245V1.25824H3.57031C5.15361 1.25824 6.48079 1.79005 7.55185 2.85368C8.6229 3.9173 9.15843 5.23527 9.15843 6.80759V38.5083C9.15843 39.0169 9.22828 39.5488 9.36799 40.1037C9.50769 40.6586 9.90352 40.9361 10.5555 40.9361C11.2074 40.9361 11.6032 40.6586 11.7429 40.1037C11.8826 39.5488 11.9525 39.0169 11.9525 38.5083V24.6349C11.9525 22.0452 12.2901 19.8486 12.9653 18.045C13.6406 16.2415 14.5021 14.7848 15.5499 13.6749C16.5976 12.565 17.7851 11.7558 19.1123 11.2471C20.4395 10.7384 21.7317 10.484 22.989 10.484C25.7365 10.484 27.6458 11.0621 28.7169 12.2182C29.7879 13.3743 30.1838 14.7385 29.9043 16.3109C29.6249 17.8832 28.7518 19.4555 27.2849 21.0278C25.818 22.6001 23.8971 23.8025 21.5222 24.6349ZM14.7466 24.6349C16.2833 24.6349 17.692 24.3227 18.9726 23.6984C20.2532 23.0741 21.3359 22.2995 22.2207 21.3746C23.1055 20.4497 23.7807 19.4439 24.2464 18.3572C24.712 17.2704 24.9216 16.2993 24.875 15.4438C24.8285 14.5882 24.4909 13.9061 23.8622 13.3974C23.2335 12.8888 22.2672 12.7269 20.9633 12.9119C20.2648 13.0044 19.543 13.2934 18.7979 13.779C18.0529 14.2645 17.3776 14.9698 16.7723 15.8947C16.1669 16.8195 15.6779 17.9988 15.3054 19.4324C14.9328 20.8659 14.7466 22.6001 14.7466 24.6349Z" fill="#E4676C"/>
<path id="Vector_2" d="M43.246 31.641V37.121C43.246 38.2771 43.7466 39.1673 44.7478 39.7916C45.749 40.4159 46.855 40.728 48.0657 40.728C49.2765 40.728 50.2893 40.3928 51.244 39.7222C52.1986 39.0517 52.6759 37.9534 52.6759 36.4273C53.5607 36.1961 54.2709 36.2886 54.8064 36.7048C55.3419 37.121 55.4933 37.7915 55.2604 38.7164C54.7482 40.5662 53.5025 41.9304 51.5234 42.809C49.5442 43.6877 47.3905 44.1039 45.0621 44.0576C43.8048 44.0114 42.5591 43.838 41.325 43.5374C40.091 43.2368 38.9967 42.7975 38.042 42.2194C37.0874 41.6414 36.319 40.9246 35.7369 40.069C35.1548 39.2135 34.8638 38.2308 34.8638 37.121V17.6982C34.8638 16.5884 35.1548 15.6057 35.7369 14.7501C36.319 13.8946 37.0874 13.1663 38.042 12.5651C38.9967 11.9639 40.091 11.513 41.325 11.2124C42.5591 10.9118 43.8048 10.7615 45.0621 10.7615C46.1332 10.7615 47.2741 10.8771 48.4848 11.1084C49.6956 11.3396 50.8249 11.7211 51.8726 12.2529C52.9204 12.7847 53.7819 13.49 54.4571 14.3686C55.1324 15.2473 55.47 16.3109 55.47 17.5595V25.8142C55.47 27.4327 55.0509 28.7622 54.2127 29.8027C53.3744 30.8433 52.3383 31.6063 51.1043 32.0919C49.8702 32.5774 48.543 32.7855 47.1227 32.7162C45.7024 32.6468 44.4102 32.2884 43.246 31.641ZM52.6759 17.9063C52.6759 16.6577 52.1753 15.6981 51.1741 15.0276C50.1729 14.3571 49.1368 14.0218 48.0657 14.0218C46.855 14.0218 45.749 14.3455 44.7478 14.9929C43.7466 15.6403 43.246 16.5421 43.246 17.6982V25.8142C43.246 27.0165 43.7349 27.9183 44.7128 28.5195C45.6908 29.1206 46.7735 29.4212 47.9609 29.4212C49.1484 29.4212 50.2311 29.1206 51.209 28.5195C52.187 27.9183 52.6759 27.0165 52.6759 25.8142V17.9063Z" fill="#E4676C"/>
<path id="Vector_3" d="M86.9011 44.0577H81.313V17.6983C81.313 16.4959 80.8706 15.5941 79.9858 14.9929C79.101 14.3918 78.1347 14.0912 77.0869 14.0912C76.0392 14.0912 75.0845 14.3918 74.223 14.9929C73.3615 15.5941 72.9308 16.4959 72.9308 17.6983V38.5083C72.9308 39.9881 72.3952 41.3061 71.3242 42.4622C70.2531 43.5259 68.9259 44.0577 67.3426 44.0577H58.9604V10.6922H61.7545C63.3378 10.6922 64.665 11.2471 65.7361 12.357C66.8071 13.4206 67.3426 14.7386 67.3426 16.3109V38.5083C67.3426 39.017 67.4125 39.5488 67.5522 40.1038C67.6919 40.6587 68.0877 40.9362 68.7397 40.9362C69.3916 40.9362 69.7874 40.6587 69.9271 40.1038C70.0669 39.5488 70.1367 39.017 70.1367 38.5083V17.6983C70.1367 16.1259 70.5558 14.8195 71.394 13.779C72.2323 12.7385 73.2684 11.9755 74.5024 11.4899C75.7365 11.0044 77.0753 10.7731 78.5189 10.7962C79.9625 10.8194 81.3013 11.0853 82.5354 11.594C83.7694 12.1027 84.8055 12.8773 85.6438 13.9178C86.482 14.9583 86.9011 16.2184 86.9011 17.6983V44.0577Z" fill="#E4676C"/>
<path id="Vector_4" d="M123.923 44.0576H121.129V6.80759C121.129 5.32776 121.664 4.00979 122.735 2.85368C123.899 1.79005 125.226 1.25824 126.717 1.25824H129.511C131.094 1.25824 132.421 1.79005 133.492 2.85368C134.563 3.9173 135.099 5.23527 135.099 6.80759V44.0576H126.717V6.80759C126.717 6.2989 126.647 5.76709 126.507 5.21215C126.367 4.65722 125.972 4.37975 125.32 4.37975C124.668 4.37975 124.272 4.65722 124.132 5.21215C123.992 5.76709 123.923 6.2989 123.923 6.80759V44.0576Z" fill="#E4676C"/>
<path id="Vector_5" d="M22.9192 96.5684C21.9413 96.5684 21.1263 96.4759 20.4744 96.2909C19.8224 96.1059 19.2986 95.8632 18.9027 95.5626C18.5069 95.262 18.2042 94.9151 17.9947 94.5221C17.7851 94.129 17.6338 93.7243 17.5406 93.3081C19.0308 93.3081 20.358 92.7763 21.5222 91.7127C22.5932 90.6491 23.1287 89.3311 23.1287 87.7588V69.7234C23.1287 68.521 22.6864 67.6193 21.8016 67.0181C20.9168 66.4169 19.9505 66.1163 18.9027 66.1163C17.855 66.1163 16.9003 66.4169 16.0388 67.0181C15.1773 67.6193 14.7466 68.521 14.7466 69.7234V90.5335C14.7466 92.0133 14.211 93.3313 13.14 94.4874C12.0689 95.551 10.7417 96.0828 9.15843 96.0828H0.776245V53.2834H3.57031C5.15361 53.2834 6.48079 53.8153 7.55185 54.8789C8.6229 55.9425 9.15843 57.2605 9.15843 58.8328V90.5335C9.15843 91.0422 9.22828 91.574 9.36799 92.1289C9.50769 92.6838 9.90352 92.9613 10.5555 92.9613C11.2074 92.9613 11.6032 92.6838 11.7429 92.1289C11.8826 91.574 11.9525 91.0422 11.9525 90.5335V69.7234C11.9525 68.1511 12.3716 66.8447 13.2098 65.8042C14.048 64.7637 15.0842 64.0006 16.3182 63.5151C17.5523 63.0295 18.8911 62.7983 20.3347 62.8214C21.7783 62.8445 23.1171 63.1104 24.3511 63.6191C25.5852 64.1278 26.6213 64.9024 27.4595 65.9429C28.2978 66.9834 28.7169 68.2436 28.7169 69.7234V90.5335C28.7169 91.2734 28.5539 92.0017 28.2279 92.7185C27.9019 93.4353 27.4712 94.0827 26.9357 94.6608C26.4001 95.2389 25.7831 95.7013 25.0846 96.0481C24.3861 96.395 23.6643 96.5684 22.9192 96.5684Z" fill="#E4676C"/>
<path id="Vector_6" d="M37.3784 96.5684C36.6333 96.5684 35.9115 96.3949 35.213 96.0481C34.5145 95.7013 33.8858 95.2388 33.327 94.6608C32.7682 94.0827 32.3258 93.4353 31.9998 92.7185C31.6739 92.0017 31.5109 91.2734 31.5109 90.5334V80.9608C31.5109 79.481 31.93 78.2208 32.7682 77.1803C33.6064 76.1398 34.6425 75.3652 35.8766 74.8565C37.1106 74.3478 38.4495 74.0819 39.8931 74.0588C41.3367 74.0357 42.6755 74.2785 43.9095 74.7872C45.1436 75.2959 46.1797 76.0589 47.0179 77.0763C47.8561 78.0937 48.2752 79.3885 48.2752 80.9608V90.5334C48.2752 91.0421 48.3451 91.5739 48.4848 92.1289C48.6245 92.6838 49.0203 92.9613 49.6723 92.9613C50.3242 92.9613 50.72 92.6838 50.8597 92.1289C50.9995 91.5739 51.0693 91.0421 51.0693 90.5334V73.6773C51.0693 72.105 50.7899 70.7292 50.2311 69.55C49.6723 68.3707 48.9505 67.4805 48.0657 66.8793C47.1809 66.2782 46.203 65.966 45.1319 65.9429C44.0609 65.9198 43.0131 66.255 41.9886 66.9487C42.1749 67.0412 42.3379 67.1799 42.4776 67.3649C42.9432 67.8273 43.1761 68.3823 43.1761 69.0297C43.1761 69.7696 42.9432 70.3708 42.4776 70.8332C42.0119 71.2957 41.4298 71.5269 40.7313 71.5269C40.0328 71.5269 39.4274 71.2957 38.9151 70.8332C38.496 70.3246 38.2748 69.7234 38.2515 69.0297C38.2283 68.336 38.3796 67.7117 38.7056 67.1568C39.311 66.0932 40.254 65.203 41.5346 64.4862C42.8152 63.7694 44.2239 63.2838 45.7606 63.0295C47.2973 62.7751 48.869 62.7289 50.4756 62.8907C52.0822 63.0526 53.5607 63.4688 54.9111 64.1393C56.2616 64.8099 57.3559 65.7579 58.1942 66.9834C59.0324 68.2089 59.4515 69.7003 59.4515 71.4576V96.0828H51.0693C49.5791 96.0828 48.252 95.551 47.0878 94.4874C46.0167 93.3312 45.4812 92.0133 45.4812 90.5334V80.9608C45.4812 79.8047 45.0388 78.9261 44.154 78.3249C43.2692 77.7237 42.3029 77.4231 41.2552 77.4231C40.2074 77.4231 39.2527 77.7121 38.3912 78.2902C37.5297 78.8682 37.099 79.7585 37.099 80.9608V87.7588C37.099 89.2386 37.6345 90.5566 38.7056 91.7127C39.8698 92.7763 41.1969 93.3081 42.6871 93.3081C42.594 93.7243 42.4426 94.129 42.2331 94.522C42.0235 94.9151 41.7325 95.262 41.3599 95.5625C40.9874 95.8631 40.4752 96.1059 39.8232 96.2909C39.1713 96.4759 38.3563 96.5684 37.3784 96.5684Z" fill="#E4676C"/>
<path id="Vector_7" d="M71.3242 62.7173H76.9123V65.2146H72.7212C72.0693 65.2146 71.6735 65.4805 71.5338 66.0123C71.3941 66.5441 71.3242 67.0643 71.3242 67.573V90.5335C71.3242 91.0422 71.3941 91.574 71.5338 92.1289C71.6735 92.6838 72.0693 92.9613 72.7212 92.9613C73.3732 92.9613 73.769 92.6838 73.9087 92.1289C74.0484 91.574 74.1183 91.0422 74.1183 90.5335V67.9892H76.9123V90.5335C76.9123 92.0133 76.3768 93.3313 75.3057 94.4874C74.2347 95.551 72.9075 96.0828 71.3242 96.0828H62.942V53.2834H65.7361C67.3194 53.2834 68.6466 53.8153 69.7176 54.8789C70.7887 55.9425 71.3242 57.2605 71.3242 58.8328V62.7173Z" fill="#E4676C"/>
<g id="Group">
<path id="Vector_8" d="M117.636 19.4324V44.0576H109.254C107.764 44.0576 106.436 43.5277 105.272 42.4622C104.201 41.308 103.666 39.99 103.666 38.5083V28.9356C103.666 27.7815 103.223 26.9028 102.338 26.2997C101.454 25.7004 100.487 25.3979 99.4396 25.3979C98.3918 25.3979 97.4372 25.6889 96.5757 26.265C96.5757 26.265 96.1837 26.554 95.8577 26.9471C93.5837 29.7122 94.68 41.7165 94.68 41.7165C94.9788 44.9902 95.0506 45.4199 95.1068 46.8843C95.3397 52.8499 94.5189 54.9848 93.7816 56.3009C93.345 57.0813 92.6776 58.1738 91.3717 59.0409C90.2541 59.7827 88.8105 60.1295 87.0409 60.0814C86.063 60.0371 85.12 59.829 84.2119 59.4571C83.3039 59.089 82.5937 58.6497 82.0815 58.1391C80.9638 57.1236 80.405 55.8057 80.405 54.1852C80.405 53.4472 80.6844 52.7979 81.2432 52.2429C81.8021 51.688 82.454 51.4105 83.1991 51.4105C83.9907 51.4105 84.666 51.688 85.2248 52.2429C85.737 52.846 85.9932 53.4915 85.9932 54.1852C85.9932 54.927 85.737 55.5976 85.2248 56.1968C85.1297 56.2912 85.0385 56.3606 84.9454 56.4049C84.8503 56.4531 84.7591 56.5225 84.666 56.613C84.8988 56.9387 85.2597 57.1814 85.7487 57.3414C86.2376 57.5052 86.7363 57.5842 87.2505 57.5842C87.6269 57.5842 88.8939 57.5861 89.7651 56.9599C90.5374 56.4049 90.842 55.4588 90.9778 54.4935C91.5095 50.7284 89.901 43.9921 89.7981 43.5566C89.7981 43.5566 87.039 31.957 90.3802 26.0145C90.6363 25.5598 90.9507 25.1551 90.9507 25.1551C91.7889 24.1146 92.825 23.342 94.0591 22.8314C95.2931 22.3246 96.6319 22.0587 98.0755 22.0336C99.5191 22.0124 100.858 22.2552 102.092 22.762C103.326 23.2726 104.362 24.0356 105.2 25.0511C106.039 26.0704 106.458 27.3652 106.458 28.9356V38.5083C106.458 39.0189 106.528 39.5488 106.667 40.1037C106.807 40.6586 107.203 40.9361 107.855 40.9361C108.507 40.9361 108.903 40.6586 109.042 40.1037C109.182 39.5488 109.252 39.0189 109.252 38.5083V21.6521C109.252 20.0817 108.972 18.704 108.414 17.5248C107.855 16.3455 107.133 15.4573 106.248 14.8542C105.363 14.2549 104.385 13.9428 103.314 13.9177C102.243 13.8965 101.196 14.2299 100.171 14.9235C100.357 15.0179 100.52 15.1567 100.66 15.3397C101.126 15.8041 101.359 16.359 101.359 17.0045C101.359 17.7464 101.126 18.3476 100.66 18.8081C100.194 19.2724 99.6123 19.5017 98.9137 19.5017C98.2152 19.5017 97.6099 19.2724 97.0976 18.8081C96.6785 18.3013 96.4573 17.6982 96.434 17.0045C96.4107 16.3109 96.5621 15.6866 96.8881 15.1316C97.4934 14.0699 98.4364 13.1797 99.717 12.461C100.998 11.7461 102.406 11.2606 103.943 11.0043C105.48 10.7519 107.051 10.7056 108.658 10.8656C110.265 11.0293 111.743 11.4455 113.094 12.1142C114.444 12.7866 115.538 13.7347 116.377 14.9582C117.215 16.1856 117.634 17.677 117.634 19.4324H117.636Z" fill="#E4676C"/>
<path id="Vector_9" d="M92.7707 64.3821C91.6977 63.2722 90.3705 62.7173 88.7892 62.7173H85.9951C84.4584 62.7173 83.1312 63.2722 82.0136 64.3821C80.9406 65.4476 80.407 66.7656 80.407 68.336V96.0828H83.201V68.336C83.201 67.8292 83.2709 67.2955 83.4106 66.7406C83.5503 66.1856 83.9442 65.9082 84.5981 65.9082C85.252 65.9082 85.6459 66.1856 85.7856 66.7406C85.9253 67.2955 85.9951 67.8292 85.9951 68.336V96.0828H94.3773V68.336C94.3773 66.7194 93.8418 65.4014 92.7707 64.3821Z" fill="#E4676C"/>
</g>
<path id="Vector_10" d="M118.684 76.6601H123.084C124.668 76.6601 125.995 77.1919 127.066 78.2555C128.137 79.4116 128.672 80.7296 128.672 82.2094V96.0828H123.084V84.9841C123.084 83.5043 122.549 82.1863 121.478 81.0302C120.407 79.9666 119.079 79.4348 117.496 79.4348H111.908V91.0884C111.768 92.337 111.233 93.47 110.301 94.4874C109.23 95.551 107.903 96.0828 106.32 96.0828H97.9377V53.2834H100.732C102.315 53.2834 103.642 53.8153 104.713 54.8789C105.784 55.9425 106.32 57.2605 106.32 58.8328V90.5335C106.32 91.0422 106.39 91.574 106.529 92.1289C106.669 92.6838 107.065 92.9613 107.717 92.9613C108.369 92.9613 108.765 92.6838 108.904 92.1289C109.044 91.574 109.114 91.0422 109.114 90.5335V76.6601C109.114 74.0704 109.452 71.8738 110.127 70.0702C110.802 68.2667 111.664 66.81 112.711 65.7001C113.759 64.5903 114.947 63.781 116.274 63.2723C117.601 62.7636 118.893 62.5092 120.151 62.5092C122.898 62.5092 124.807 63.0873 125.878 64.2434C126.949 65.3995 127.345 66.7637 127.066 68.3361C126.786 69.9084 125.913 71.4807 124.446 73.053C122.98 74.6253 121.059 75.8277 118.684 76.6601ZM111.908 76.6601C113.445 76.6601 114.853 76.3479 116.134 75.7236C117.415 75.0993 118.497 74.3247 119.382 73.3998C120.267 72.475 120.942 71.4691 121.408 70.3824C121.874 69.2956 122.083 68.3245 122.037 67.469C121.99 66.6135 121.652 65.9313 121.024 65.4227C120.395 64.914 119.429 64.7521 118.125 64.9371C117.426 65.0296 116.705 65.3186 115.959 65.8042C115.214 66.2897 114.539 66.995 113.934 67.9199C113.328 68.8448 112.839 70.024 112.467 71.4576C112.094 72.8912 111.908 74.6253 111.908 76.6601Z" fill="#E4676C"/>
</g>
</g>
</svg>
