<?xml version="1.0" encoding="UTF-8" standalone="no" ?>
<!DOCTYPE svg PUBLIC "-//W3C//DTD SVG 1.1//EN" "http://www.w3.org/Graphics/SVG/1.1/DTD/svg11.dtd">
<svg xmlns="http://www.w3.org/2000/svg" xmlns:xlink="http://www.w3.org/1999/xlink" version="1.1" width="1080" height="1080" viewBox="0 0 1080 1080" xml:space="preserve">
<desc>Created with Fabric.js 5.2.4</desc>
<defs>
</defs>
<g transform="matrix(1 0 0 1 540 540)" id="09b9e9f6-b5d1-4df8-a41d-5adcbc9c84e7"  >
<rect style="stroke: none; stroke-width: 1; stroke-dasharray: none; stroke-linecap: butt; stroke-dashoffset: 0; stroke-linejoin: miter; stroke-miterlimit: 4; fill: rgb(255,255,255); fill-rule: nonzero; opacity: 1; visibility: hidden;" vector-effect="non-scaling-stroke"  x="-540" y="-540" rx="0" ry="0" width="1080" height="1080" />
</g>
<g transform="matrix(1 0 0 1 540 540)" id="9ebebeee-fa37-4fae-82a2-b5ab90623e61"  >
</g>
<g transform="matrix(4.32 0 0 4.32 540 540)"  >
<g style=""   >
		<g transform="matrix(1 0 0 1 0.29 0.21)"  >
<path style="stroke: none; stroke-width: 1; stroke-dasharray: none; stroke-linecap: butt; stroke-dashoffset: 0; stroke-linejoin: miter; stroke-miterlimit: 4; fill: rgb(228,103,108); fill-rule: nonzero; opacity: 1;" vector-effect="non-scaling-stroke"  transform=" translate(-125.29, -37.71)" d="M 0.576172 18.537 L 9.86979 20.4256 L 18.2887 13.5984 L 24.82 0.526367 L 43.1146 3.5764 L 50.9547 8.95259 L 52.5498 2.41495 L 61.2613 3.43162 L 68.3747 9.38692 L 73.0215 8.51501 L 80.8616 12.1474 L 82.8907 9.53492 C 82.8907 9.53492 86.6693 14.6183 87.827 14.7631 C 88.9911 14.9079 94.072 24.9299 94.5062 24.9299 C 94.9403 24.9299 109.315 27.3976 109.315 27.3976 L 133.272 26.0914 L 139.807 26.3809 C 139.807 26.3809 151.709 13.5984 154.178 14.7599 C 156.648 15.9213 166.81 22.8933 166.81 22.8933 C 166.81 22.8933 188.439 26.0881 188.295 27.1048 C 188.15 28.1215 194.971 28.9934 194.971 28.9934 L 201.505 42.0654 L 213.558 50.0541 L 232.869 48.3103 L 247.095 49.9093 L 247.967 55.2855 L 246.806 70.2462 L 249.999 74.8952 L 246.224 74.8952 L 237.512 73.589 C 237.512 73.589 218.205 65.6003 216.899 65.1628 C 215.594 64.7284 199.769 68.9399 199.769 68.9399 L 179.297 62.5471 L 173.052 65.1628 L 141.695 58.3356 L 127.175 51.5084 L 115.563 49.6198 L 101.337 47.1521 L 91.7534 49.1854 L 86.8172 52.525 L 76.9448 50.6364 C 76.9448 50.6364 61.6987 43.3717 61.2678 43.5197 C 60.8304 43.6645 39.201 42.6478 39.201 42.6478 L 32.0877 37.9988 L 34.4095 32.0435 L 29.3285 28.9934 L 19.6008 25.2162 L 14.0825 27.8319 L 2.75647 24.9267 L 0.579391 18.537 L 0.576172 18.537 Z" stroke-linecap="round" />
</g>
		<g transform="matrix(1 0 0 1 94.89 -6.11)"  >
<path style="stroke: none; stroke-width: 1; stroke-dasharray: none; stroke-linecap: butt; stroke-dashoffset: 0; stroke-linejoin: miter; stroke-miterlimit: 4; fill: rgb(228,103,108); fill-rule: nonzero; opacity: 1;" vector-effect="non-scaling-stroke"  transform=" translate(-219.89, -31.39)" d="M 200.891 31.4997 C 201.762 30.8466 211.561 25.509 213.195 25.6184 C 214.828 25.7278 222.884 26.5997 223.215 26.5997 L 238.892 26.5997 L 231.161 33.0279 L 218.639 37.1654 L 205.898 36.7311 L 200.891 31.4997 Z" stroke-linecap="round" />
</g>
</g>
</g>
</svg>