<?xml version="1.0" encoding="UTF-8" standalone="no" ?>
<!DOCTYPE svg PUBLIC "-//W3C//DTD SVG 1.1//EN" "http://www.w3.org/Graphics/SVG/1.1/DTD/svg11.dtd">
<svg xmlns="http://www.w3.org/2000/svg" xmlns:xlink="http://www.w3.org/1999/xlink" version="1.1" width="1080" height="1080" viewBox="0 0 1080 1080" xml:space="preserve">
<desc>Created with Fabric.js 5.2.4</desc>
<defs>
</defs>
<rect x="0" y="0" width="100%" height="100%" fill="transparent"></rect>
<g transform="matrix(1 0 0 1 540 540)" id="0ddd0808-da7e-4c4d-894c-a70c696b1969"  >
<rect style="stroke: none; stroke-width: 1; stroke-dasharray: none; stroke-linecap: butt; stroke-dashoffset: 0; stroke-linejoin: miter; stroke-miterlimit: 4; fill: rgb(255,255,255); fill-rule: nonzero; opacity: 1; visibility: hidden;" vector-effect="non-scaling-stroke"  x="-540" y="-540" rx="0" ry="0" width="1080" height="1080" />
</g>
<g transform="matrix(1 0 0 1 540 540)" id="a1a130e2-8b6e-4b48-a936-3d367ec32a82"  >
</g>
<g transform="matrix(5.76 0 0 5.76 476.45 503.1)"  >
<g style=""   >
		<g transform="matrix(1 0 0 1 -8 -41.05)"  >
<path style="stroke: none; stroke-width: 1; stroke-dasharray: none; stroke-linecap: butt; stroke-dashoffset: 0; stroke-linejoin: miter; stroke-miterlimit: 4; fill: rgb(228,103,108); fill-rule: nonzero; opacity: 1;" vector-effect="non-scaling-stroke"  transform=" translate(-58.5, -41.95)" d="M 52.9839 0.664673 L 43.6935 18.0962 L 40.645 38.1403 L 43.0407 51.8655 L 47.3981 56.8749 C 47.3981 56.8749 45.8706 66.0282 46.5266 66.4625 C 47.1795 66.8969 52.1896 72.7814 52.1896 72.7814 L 58.7241 83.2378 L 59.5956 80.8408 L 52.8424 63.1937 L 55.2382 46.6373 C 55.2382 46.6373 76.3627 56.2217 76.3627 55.5686 C 76.3627 54.9155 73.0955 47.506 73.0955 47.506 L 62.8596 41.8402 L 69.8282 35.9589 L 75.4912 31.8182 L 72.224 18.5274 L 66.7797 20.4867 L 58.2867 25.9337 L 60.2452 29.4213 L 56.5438 30.2932 L 52.1896 39.4433 L 48.0509 36.612 L 47.1794 33.562 L 55.6723 22.4525 L 55.6723 17.0056 L 51.3181 11.9962 L 55.6723 3.49915 L 52.9871 0.667893 L 52.9839 0.664673 Z" stroke-linecap="round" />
</g>
		<g transform="matrix(1 0 0 1 25.39 66.84)"  >
<path style="stroke: none; stroke-width: 1; stroke-dasharray: none; stroke-linecap: butt; stroke-dashoffset: 0; stroke-linejoin: miter; stroke-miterlimit: 4; fill: rgb(228,103,108); fill-rule: nonzero; opacity: 1;" vector-effect="non-scaling-stroke"  transform=" translate(-91.89, -149.84)" d="M 55.8878 138.653 L 76.2115 134.587 L 82.0193 138.364 L 90.4414 134.879 L 110.768 141.851 L 119.187 140.397 L 132.253 161.023 L 132.253 165.09 L 109.025 156.085 L 105.832 148.53 L 96.2491 153.18 L 79.6975 151.146 L 77.6651 146.208 L 68.082 154.341 L 61.1134 147.951 L 51.5336 152.018 L 54.7269 144.757 L 59.081 143.013 L 55.8878 138.653 Z" stroke-linecap="round" />
</g>
		<g transform="matrix(1 0 0 1 -46.98 68.44)"  >
<path style="stroke: none; stroke-width: 1; stroke-dasharray: none; stroke-linecap: butt; stroke-dashoffset: 0; stroke-linejoin: miter; stroke-miterlimit: 4; fill: rgb(228,103,108); fill-rule: nonzero; opacity: 1;" vector-effect="non-scaling-stroke"  transform=" translate(-19.52, -151.44)" d="M 0.572998 144.464 L 26.4891 142.067 L 38.4679 153.614 L 24.9648 160.805 L 11.243 159.936 L 0.572998 144.464 Z" stroke-linecap="round" />
</g>
</g>
</g>
</svg>