<?xml version="1.0" encoding="UTF-8" standalone="no" ?>
<!DOCTYPE svg PUBLIC "-//W3C//DTD SVG 1.1//EN" "http://www.w3.org/Graphics/SVG/1.1/DTD/svg11.dtd">
<svg xmlns="http://www.w3.org/2000/svg" xmlns:xlink="http://www.w3.org/1999/xlink" version="1.1" width="1080" height="1080" viewBox="0 0 1080 1080" xml:space="preserve">
<desc>Created with Fabric.js 5.2.4</desc>
<defs>
</defs>
<g transform="matrix(1 0 0 1 540 540)" id="1e5f4bdc-e0e5-43b3-81d7-0ad13b9ac667"  >
<rect style="stroke: none; stroke-width: 1; stroke-dasharray: none; stroke-linecap: butt; stroke-dashoffset: 0; stroke-linejoin: miter; stroke-miterlimit: 4; fill: rgb(255,255,255); fill-rule: nonzero; opacity: 1; visibility: hidden;" vector-effect="non-scaling-stroke"  x="-540" y="-540" rx="0" ry="0" width="1080" height="1080" />
</g>
<g transform="matrix(1 0 0 1 540 540)" id="fbb6c2c6-c91a-40c7-95e1-8cda37adfb96"  >
</g>
<g transform="matrix(12.27 0 0 12.27 540 540)"  >
<g style=""   >
		<g transform="matrix(1 0 0 1 -32.44 -2.5)"  >
<path style="stroke: none; stroke-width: 1; stroke-dasharray: none; stroke-linecap: butt; stroke-dashoffset: 0; stroke-linejoin: miter; stroke-miterlimit: 4; fill: rgb(228,103,108); fill-rule: nonzero; opacity: 1;" vector-effect="non-scaling-stroke"  transform=" translate(-11.56, -10.5)" d="M 4.37368 15.513 L 3.06809 7.45031 L 13.4133 0.912689 L 23.1024 4.72523 L 15.0437 20.0848 L 0.0195312 19.3223 C 0.0195312 19.3223 4.04567 15.4004 4.37046 15.5098 L 4.37368 15.513 Z" stroke-linecap="round" />
</g>
		<g transform="matrix(1 0 0 1 11.33 -0.21)"  >
<path style="stroke: none; stroke-width: 1; stroke-dasharray: none; stroke-linecap: butt; stroke-dashoffset: 0; stroke-linejoin: miter; stroke-miterlimit: 4; fill: rgb(228,103,108); fill-rule: nonzero; opacity: 1;" vector-effect="non-scaling-stroke"  transform=" translate(-55.33, -12.79)" d="M 23.8292 11.4076 L 33.8464 6.90337 L 47.7836 13.441 L 52.7198 16.491 L 63.9011 13.5858 L 57.0772 8.93672 L 51.2695 7.33771 C 51.2695 7.33771 44.735 1.23764 45.1724 1.23764 C 45.6097 1.23764 57.6561 0.220947 57.6561 0.220947 C 57.6561 0.220947 62.737 5.01479 63.3191 5.01479 C 63.9012 5.01479 70.5803 2.10953 70.5803 2.10953 L 84.5176 5.59389 L 87.5662 13.4378 L 79.2887 18.9587 L 75.3687 14.3097 L 70.143 18.0869 L 67.0944 14.4545 L 58.817 20.4098 L 46.0439 21.2817 L 40.3808 24.914 L 36.3129 22.7359 L 32.3928 25.3516 L 23.1024 22.3016 L 23.826 11.4076 L 23.8292 11.4076 Z" stroke-linecap="round" />
</g>
</g>
</g>
</svg>