<?xml version="1.0" encoding="UTF-8" standalone="no" ?>
<!DOCTYPE svg PUBLIC "-//W3C//DTD SVG 1.1//EN" "http://www.w3.org/Graphics/SVG/1.1/DTD/svg11.dtd">
<svg xmlns="http://www.w3.org/2000/svg" xmlns:xlink="http://www.w3.org/1999/xlink" version="1.1" width="1080" height="1080" viewBox="0 0 1080 1080" xml:space="preserve">
<desc>Created with Fabric.js 5.2.4</desc>
<defs>
</defs>
<g transform="matrix(1 0 0 1 540 540)" id="af3c6b12-2560-411b-a06e-e1a19e6b6ecf"  >
<rect style="stroke: none; stroke-width: 1; stroke-dasharray: none; stroke-linecap: butt; stroke-dashoffset: 0; stroke-linejoin: miter; stroke-miterlimit: 4; fill: rgb(255,255,255); fill-rule: nonzero; opacity: 1; visibility: hidden;" vector-effect="non-scaling-stroke"  x="-540" y="-540" rx="0" ry="0" width="1080" height="1080" />
</g>
<g transform="matrix(1 0 0 1 540 540)" id="757ab225-dbde-4433-8aa7-2f0d0fdaea92"  >
</g>
<g transform="matrix(6.35 0 0 6.35 540 540)"  >
<g style=""   >
		<g transform="matrix(1 0 0 1 -20.82 -14.64)"  >
<path style="stroke: none; stroke-width: 1; stroke-dasharray: none; stroke-linecap: butt; stroke-dashoffset: 0; stroke-linejoin: miter; stroke-miterlimit: 4; fill: rgb(228,103,108); fill-rule: nonzero; opacity: 1;" vector-effect="non-scaling-stroke"  transform=" translate(-64.18, -13.86)" d="M 20.6319 13.4244 L 46.474 3.54709 L 68.8302 11.391 L 76.0914 8.4857 L 82.7673 10.5191 L 92.9293 11.1014 L 107.738 4.71176 C 107.738 4.71176 103.963 14.0067 103.091 13.4275 C 102.223 12.8484 84.5103 19.2381 84.5103 19.2381 L 75.7987 23.3048 L 68.8302 19.8172 L 58.9577 24.1767 L 42.1198 20.3995 L 31.9546 20.6891 L 20.6319 13.4244 Z" stroke-linecap="round" />
</g>
		<g transform="matrix(1 0 0 1 -58.85 15.28)"  >
<path style="stroke: none; stroke-width: 1; stroke-dasharray: none; stroke-linecap: butt; stroke-dashoffset: 0; stroke-linejoin: miter; stroke-miterlimit: 4; fill: rgb(228,103,108); fill-rule: nonzero; opacity: 1;" vector-effect="non-scaling-stroke"  transform=" translate(-26.15, -43.78)" d="M 0.886963 34.633 C 2.05108 34.3435 24.6967 31.7278 25.5681 31.7278 C 26.4396 31.7278 32.2473 37.8279 32.2473 37.8279 L 35.1512 37.5383 L 37.473 42.1873 L 42.6987 41.605 L 51.4102 51.1927 L 48.2169 55.549 L 32.8262 55.8385 L 23.8252 48.2842 L 12.7918 45.379 L 11.9235 42.7633 L 6.40523 43.3456 L 0.886963 34.6298 L 0.886963 34.633 Z" stroke-linecap="round" />
</g>
		<g transform="matrix(1 0 0 1 56.57 9.76)"  >
<path style="stroke: none; stroke-width: 1; stroke-dasharray: none; stroke-linecap: butt; stroke-dashoffset: 0; stroke-linejoin: miter; stroke-miterlimit: 4; fill: rgb(228,103,108); fill-rule: nonzero; opacity: 1;" vector-effect="non-scaling-stroke"  transform=" translate(-141.57, -38.26)" d="M 113.838 55.549 L 122.55 49.1561 L 126.325 35.5049 L 161.458 19.5276 L 163.197 22.1401 L 169.295 22.1401 L 166.683 28.2434 L 168.426 33.4716 L 151.875 49.4489 L 139.68 57 L 124.582 57 L 113.838 55.549 Z" stroke-linecap="round" />
</g>
		<g transform="matrix(1 0 0 1 63.46 -22.05)"  >
<path style="stroke: none; stroke-width: 1; stroke-dasharray: none; stroke-linecap: butt; stroke-dashoffset: 0; stroke-linejoin: miter; stroke-miterlimit: 4; fill: rgb(228,103,108); fill-rule: nonzero; opacity: 1;" vector-effect="non-scaling-stroke"  transform=" translate(-148.46, -6.45)" d="M 132.13 8.77849 L 135.178 4.85657 L 144.327 0.352295 L 153.184 1.07938 L 163.927 1.07938 L 164.799 4.71177 L 151.003 8.19618 L 144.906 11.1014 L 137.066 12.5524 L 136.05 9.93995 L 132.13 8.77849 Z" stroke-linecap="round" />
</g>
		<g transform="matrix(1 0 0 1 36.75 -19.72)"  >
<path style="stroke: none; stroke-width: 1; stroke-dasharray: none; stroke-linecap: butt; stroke-dashoffset: 0; stroke-linejoin: miter; stroke-miterlimit: 4; fill: rgb(228,103,108); fill-rule: nonzero; opacity: 1;" vector-effect="non-scaling-stroke"  transform=" translate(-121.75, -8.78)" d="M 113.694 10.9566 C 114.42 10.2295 120.08 5.29088 120.08 5.29088 L 122.55 6.5971 L 129.808 3.83664 L 122.26 13.7139 L 113.694 10.9534 L 113.694 10.9566 Z" stroke-linecap="round" />
</g>
</g>
</g>
</svg>