<?xml version="1.0" encoding="UTF-8" standalone="no" ?>
<!DOCTYPE svg PUBLIC "-//W3C//DTD SVG 1.1//EN" "http://www.w3.org/Graphics/SVG/1.1/DTD/svg11.dtd">
<svg xmlns="http://www.w3.org/2000/svg" xmlns:xlink="http://www.w3.org/1999/xlink" version="1.1" width="1080" height="1080" viewBox="0 0 1080 1080" xml:space="preserve">
<desc>Created with Fabric.js 5.2.4</desc>
<defs>
</defs>
<g transform="matrix(1 0 0 1 540 540)" id="93988003-6f8b-452f-9922-ad456a3852db"  >
<rect style="stroke: none; stroke-width: 1; stroke-dasharray: none; stroke-linecap: butt; stroke-dashoffset: 0; stroke-linejoin: miter; stroke-miterlimit: 4; fill: rgb(255,255,255); fill-rule: nonzero; opacity: 1; visibility: hidden;" vector-effect="non-scaling-stroke"  x="-540" y="-540" rx="0" ry="0" width="1080" height="1080" />
</g>
<g transform="matrix(1 0 0 1 540 540)" id="1242d345-8834-4790-b9d7-7d9a50ab4406"  >
</g>
<g transform="matrix(3.87 0 0 3.87 540 540)"  >
<g style=""   >
		<g transform="matrix(1 0 0 1 0.27 -0.08)"  >
<path style="stroke: none; stroke-width: 1; stroke-dasharray: none; stroke-linecap: butt; stroke-dashoffset: 0; stroke-linejoin: miter; stroke-miterlimit: 4; fill: rgb(228,103,108); fill-rule: nonzero; opacity: 1;" vector-effect="non-scaling-stroke"  transform=" translate(-139.77, -116.42)" d="M 277.55 232.338 L 277.55 178.596 L 274.935 165.231 L 279 159.42 L 279 60.0688 L 247.061 54.5478 L 216.283 38.5705 L 192.473 31.8881 L 176.793 37.1163 L 176.214 46.1216 L 157.63 49.606 L 152.115 63.2604 L 137.595 74.0095 L 128.594 82.143 L 119.593 79.5273 L 106.817 60.9343 L 100.72 62.9676 L 94.9154 38.5641 L 96.6551 26.943 L 89.3971 12.4167 L 74.0096 12.7063 L 57.7505 0.50293 L 44.1027 1.95716 L 32.1979 10.6729 L 24.6504 11.8344 L 17.9712 20.8397 L 13.035 24.6169 L 10.1311 17.3521 L 0.548096 17.6417 L 9.8417 32.7471 L 29.294 31.0033 L 35.6806 36.5243 L 50.1999 53.9558 C 50.1999 53.9558 58.6188 53.6663 59.4902 53.6663 C 60.3617 53.6663 87.9468 46.6943 87.9468 46.6943 L 90.558 55.9892 L 84.1714 62.9612 L 71.3951 56.2788 L 58.0399 68.1894 L 43.5207 63.5403 L 36.8447 67.8966 L 58.6188 80.9686 L 62.9762 90.2635 L 57.4579 96.6564 L 78.9458 96.3668 L 80.9782 80.6791 L 87.9468 73.9967 L 85.9144 86.1968 L 89.3971 91.425 L 116.982 106.823 C 116.982 106.823 134.402 111.179 135.852 111.472 C 137.306 111.762 157.63 112.634 157.63 112.634 L 197.12 131.227 L 205.249 151.271 L 219.186 173.931 L 226.444 179.451 L 218.894 180.613 L 222.958 191.941 L 212.218 187.585 L 198.57 198.044 C 198.57 198.044 188.119 214.894 189.28 214.604 C 190.44 214.315 225.576 216.058 225.576 216.058 L 235.738 209.666 L 251.708 207.05 L 277.55 232.322 L 277.55 232.338 Z" stroke-linecap="round" />
</g>
		<g transform="matrix(1 0 0 1 -35.55 40.78)"  >
<path style="stroke: none; stroke-width: 1; stroke-dasharray: none; stroke-linecap: butt; stroke-dashoffset: 0; stroke-linejoin: miter; stroke-miterlimit: 4; fill: rgb(228,103,108); fill-rule: nonzero; opacity: 1;" vector-effect="non-scaling-stroke"  transform=" translate(-103.95, -157.28)" d="M 104.929 134.946 L 94.6935 153.031 L 94.9122 175.687 L 97.3079 179.609 L 108.631 161.962 L 113.204 149.109 L 109.284 138.43 L 104.929 134.946 Z" stroke-linecap="round" />
</g>
		<g transform="matrix(1 0 0 1 -119.39 76.18)"  >
<path style="stroke: none; stroke-width: 1; stroke-dasharray: none; stroke-linecap: butt; stroke-dashoffset: 0; stroke-linejoin: miter; stroke-miterlimit: 4; fill: rgb(228,103,108); fill-rule: nonzero; opacity: 1;" vector-effect="non-scaling-stroke"  transform=" translate(-20.11, -192.68)" d="M 28.2714 180.7 L 16.5112 190.722 L 9.32715 204.666 L 19.1256 202.269 L 28.4901 192.028 L 30.8858 185.494 L 28.2714 180.7 Z" stroke-linecap="round" />
</g>
</g>
</g>
</svg>