<?xml version="1.0" encoding="UTF-8" standalone="no" ?>
<!DOCTYPE svg PUBLIC "-//W3C//DTD SVG 1.1//EN" "http://www.w3.org/Graphics/SVG/1.1/DTD/svg11.dtd">
<svg xmlns="http://www.w3.org/2000/svg" xmlns:xlink="http://www.w3.org/1999/xlink" version="1.1" width="1080" height="1080" viewBox="0 0 1080 1080" xml:space="preserve">
<desc>Created with Fabric.js 5.2.4</desc>
<defs>
</defs>
<g transform="matrix(1 0 0 1 540 540)" id="6bfe47fd-aa99-4e8d-aec3-3be048935a6b"  >
<rect style="stroke: none; stroke-width: 1; stroke-dasharray: none; stroke-linecap: butt; stroke-dashoffset: 0; stroke-linejoin: miter; stroke-miterlimit: 4; fill: rgb(255,255,255); fill-rule: nonzero; opacity: 1; visibility: hidden;" vector-effect="non-scaling-stroke"  x="-540" y="-540" rx="0" ry="0" width="1080" height="1080" />
</g>
<g transform="matrix(1 0 0 1 540 540)" id="9285d9bc-ffb7-46fd-a6a1-c196ef6def15"  >
</g>
<g transform="matrix(3.96 0 0 3.96 541.93 592.94)"  >
<g style=""   >
		<g transform="matrix(1 0 0 1 0.14 -0.12)"  >
<path style="stroke: none; stroke-width: 1; stroke-dasharray: none; stroke-linecap: butt; stroke-dashoffset: 0; stroke-linejoin: miter; stroke-miterlimit: 4; fill: rgb(228,103,108); fill-rule: nonzero; opacity: 1;" vector-effect="non-scaling-stroke"  transform=" translate(-85.64, -98.88)" d="M 22.9213 194.811 L 18.2777 182.61 L 19.1492 163.293 L 16.2453 148.478 L 17.2615 140.196 L 15.0844 138.597 L 2.45285 142.953 L 0.565186 130.753 L 6.51758 117.971 L 8.83941 101.704 L 12.3221 101.27 L 11.7432 78.3203 L 20.889 62.4877 L 24.0854 45.4937 L 36.5692 23.4163 L 43.6824 26.1768 L 52.2493 10.1995 L 67.7848 13.2495 L 75.9144 18.0434 L 99.142 21.383 L 106.255 24.2882 L 110.465 21.5278 L 135.873 22.982 L 145.022 14.5558 L 152.862 13.8287 L 160.557 1.77329 L 165.493 0.322266 L 170.719 8.16615 L 155.473 26.9039 L 147.488 36.926 L 119.176 39.976 L 110.757 35.3269 L 77.5094 36.1988 L 72.8625 33.7279 L 64.0063 36.3436 L 54.2785 36.1988 C 54.2785 36.1988 51.9535 33.5831 47.3099 33.2936 C 42.663 33.004 36.7138 38.6698 36.7138 38.6698 L 31.6329 60.8919 L 37.5853 69.7525 L 50.2169 82.6798 L 57.1855 85.7298 L 68.6563 70.0421 L 89.4175 70.9139 L 108.291 66.7025 L 117.437 61.0367 C 117.437 61.0367 125.421 65.2482 124.116 66.5577 C 122.81 67.8639 120.923 75.1287 120.923 75.1287 L 114.391 70.9172 L 100.454 75.8558 L 83.3235 92.4155 C 83.3235 92.4155 77.9499 94.0145 74.0299 94.7384 C 70.1098 95.4655 68.2254 98.078 68.2254 98.078 L 84.195 112.749 L 90.4368 127.71 L 91.8904 130.905 L 89.7133 143.397 L 101.184 151.968 L 108.008 162.573 C 108.008 162.573 100.168 165.333 96.5372 165.478 C 92.9066 165.623 84.777 169.4 84.777 169.4 L 85.0665 177.678 C 85.0665 177.678 79.9855 176.662 76.6475 174.773 C 73.3095 172.884 69.8268 168.528 69.8268 168.528 L 73.6022 156.18 L 58.7934 145.576 L 54.2945 138.893 L 60.1023 128.726 L 58.504 118.122 L 48.3421 114.345 L 33.6782 127.127 L 43.4059 135.554 L 42.1003 150.225 L 36.582 159.812 L 40.6468 175.355 L 35.5658 182.617 L 42.8238 197.143 L 31.0637 197.433 L 22.931 194.817 L 22.9213 194.811 Z" stroke-linecap="round" />
</g>
		<g transform="matrix(1 0 0 1 17.24 83.94)"  >
<path style="stroke: none; stroke-width: 1; stroke-dasharray: none; stroke-linecap: butt; stroke-dashoffset: 0; stroke-linejoin: miter; stroke-miterlimit: 4; fill: rgb(228,103,108); fill-rule: nonzero; opacity: 1;" vector-effect="non-scaling-stroke"  transform=" translate(-102.74, -182.94)" d="M 101.682 170.629 L 93.9163 174.261 L 92.9001 184.283 L 92.0286 191.111 C 92.0286 191.111 98.7078 195.47 98.8525 195.251 C 98.9972 195.033 111.7 188.061 111.41 188.061 C 111.121 188.061 108.506 184.283 108.506 184.283 L 113.443 173.245 L 105.529 173.464 C 105.529 173.464 100.013 185.664 100.592 185.519 C 101.174 185.374 101.682 170.632 101.682 170.632 L 101.682 170.629 Z" stroke-linecap="round" />
</g>
</g>
</g>
</svg>