<?xml version="1.0" encoding="UTF-8" standalone="no" ?>
<!DOCTYPE svg PUBLIC "-//W3C//DTD SVG 1.1//EN" "http://www.w3.org/Graphics/SVG/1.1/DTD/svg11.dtd">
<svg xmlns="http://www.w3.org/2000/svg" xmlns:xlink="http://www.w3.org/1999/xlink" version="1.1" width="1080" height="1080" viewBox="0 0 1080 1080" xml:space="preserve">
<desc>Created with Fabric.js 5.2.4</desc>
<defs>
</defs>
<g transform="matrix(1 0 0 1 540 540)" id="8ed8b9bc-95b4-4800-abda-2d23ea99f623"  >
<rect style="stroke: none; stroke-width: 1; stroke-dasharray: none; stroke-linecap: butt; stroke-dashoffset: 0; stroke-linejoin: miter; stroke-miterlimit: 4; fill: rgb(255,255,255); fill-rule: nonzero; opacity: 1; visibility: hidden;" vector-effect="non-scaling-stroke"  x="-540" y="-540" rx="0" ry="0" width="1080" height="1080" />
</g>
<g transform="matrix(1 0 0 1 540 540)" id="66deb53c-5ae9-419b-b041-a5976e4cb919"  >
</g>
<g transform="matrix(NaN NaN NaN NaN 0 0)"  >
<g style=""   >
</g>
</g>
<g transform="matrix(NaN NaN NaN NaN 0 0)"  >
<g style=""   >
</g>
</g>
<g transform="matrix(3.5 0 0 3.5 540 540)"  >
<g style=""   >
		<g transform="matrix(1 0 0 1 -7.64 -0.45)"  >
<path style="stroke: none; stroke-width: 1; stroke-dasharray: none; stroke-linecap: butt; stroke-dashoffset: 0; stroke-linejoin: miter; stroke-miterlimit: 4; fill: rgb(228,103,108); fill-rule: nonzero; opacity: 1;" vector-effect="non-scaling-stroke"  transform=" translate(-146.86, -153.55)" d="M 9.1521 25.8835 L 28.1703 40.117 L 36.1551 49.7047 L 42.8343 50.7214 L 54.4497 64.9549 L 59.5307 67.5706 L 60.4021 73.2364 L 68.6764 79.0469 L 70.7087 91.5398 L 77.97 91.2502 L 83.9224 96.0441 C 83.9224 96.0441 89.296 98.2222 89.7301 98.5118 C 90.1643 98.8014 94.0843 101.855 94.0843 101.855 L 106.279 137.731 C 106.279 137.731 106.861 145.43 107.732 145.575 C 108.604 145.72 118.766 147.608 118.766 147.608 L 122.396 150.948 L 124.863 160.536 L 141.993 179.129 L 146.132 190.241 L 154.625 202.805 L 152.592 209.488 L 162.754 222.56 L 172.045 233.309 L 190.629 246.381 L 190.05 258.002 L 224.314 284.439 L 233.026 287.051 L 251.61 307.095 L 254.514 298.379 L 270.194 303.9 L 271.355 299.544 L 283.838 306.661 L 288.485 272.091 L 284.131 263.809 L 289.212 253.642 L 284.858 246.526 L 293.714 234.033 L 283.697 224.738 L 278.179 217.621 L 258.434 213.554 L 257.852 203.677 L 250.59 199.321 L 244.638 180.149 L 231.427 180.731 L 222.282 172.742 L 227.507 162.138 L 224.604 152.985 L 230.701 147.756 L 218.362 133.085 L 191.793 124.659 L 178.434 108.682 L 169.433 107.81 L 164.931 95.8993 L 153.316 89.3617 L 152.444 94.7346 L 145.91 92.4117 L 129.651 75.4177 L 110.195 58.8581 L 85.9516 42.0088 L 87.1125 31.9868 L 78.983 28.2097 L 62.2866 13.101 L 53.7197 14.5553 L 45.5902 10.199 L 36.4445 14.1209 L 27.7329 10.4885 L 18.4457 1.77276 C 18.4457 1.77276 -0.427732 -0.260597 0.00639971 0.0289633 C 0.440531 0.318524 9.15211 25.8835 9.73416 26.1763" stroke-linecap="round" />
</g>
		<g transform="matrix(1 0 0 1 137.1 55.95)"  >
<path style="stroke: none; stroke-width: 1; stroke-dasharray: none; stroke-linecap: butt; stroke-dashoffset: 0; stroke-linejoin: miter; stroke-miterlimit: 4; fill: rgb(228,103,108); fill-rule: nonzero; opacity: 1;" vector-effect="non-scaling-stroke"  transform=" translate(-291.6, -209.95)" d="M 274.4 193.938 L 279.407 209.841 L 286.157 211.585 C 286.157 211.585 290.296 223.132 290.949 223.351 C 291.605 223.57 298.57 227.492 298.57 227.492 L 308.806 219.214 L 302.271 214.854 L 288.768 192.413 L 282.671 197.641 L 274.397 193.938 L 274.4 193.938 Z" stroke-linecap="round" />
</g>
</g>
</g>
</svg>